# xmcd
#
# Track frame offsets:
#	150
#	19052
#	39439
#	70494
#	86949
#	102245
#	118816
#	136020
#	153240
#	172131
#	193578
#	211792
#	230086
#	258656
#	281368
#	293789
#	317172
#
# Disc length: 4524 seconds
#
# Revision: 0
# Processed by: cddbd v1.5.2PL0 Copyright (c) Steve Scherf et al.
# Submitted via: audiograbber 1.83.01
#
DISCID=fb11aa11
DTITLE=Hans Theessink - Birthday Bash CD 2
DYEAR=2009
DGENRE=Blues
TTITLE0=Catch The Wind
TTITLE1=The Blues Done Have A Baby
TTITLE2=I Wish I Had Someone To Love Me
TTITLE3=Sail Away [Hans Theessnik, The Dubliners]
TTITLE4=Slap Tap
TTITLE5=Ois Von Mir
TTITLE6=Herzverbunden
TTITLE7=Gö, Du Bleibst Heut Nacht Bei Mir
TTITLE8=Colours
TTITLE9=Katrina
TTITLE10=No Expectations
TTITLE11=Sail Away [Lukas Resetarits]
TTITLE12=You Got To Move
TTITLE13=See You Later Alligator 
TTITLE14=Whiskey In The Jar
TTITLE15=Will The Circle Be Unbroken
TTITLE16=May The Road
EXTD=
EXTT0=
EXTT1=
EXTT2=
EXTT3=
EXTT4=
EXTT5=
EXTT6=
EXTT7=
EXTT8=
EXTT9=
EXTT10=
EXTT11=
EXTT12=
EXTT13=
EXTT14=
EXTT15=
EXTT16=
PLAYORDER=
